<svg width="24" height="24" viewBox="0 0 24 24" fill="none" xmlns="http://www.w3.org/2000/svg">
<path d="M21.7898 2.21017C20.9823 1.40266 20.0107 0.999267 18.8751 1H5.12493C3.98854 1 3.01695 1.40339 2.21017 2.21017C1.40266 3.01769 0.999267 3.98927 1 5.12493V18.8751C1 20.0115 1.40339 20.983 2.21017 21.7898C3.01769 22.5973 3.98927 23.0007 5.12493 23H8.3337C8.54292 23 8.70039 22.9927 8.8061 22.978C8.92922 22.9536 9.04033 22.888 9.12103 22.7919C9.22601 22.6818 9.27849 22.5221 9.27849 22.3129L9.27079 21.3384C9.26638 20.7173 9.26418 20.2255 9.26418 19.8628L8.93383 19.9201C8.72461 19.9582 8.45997 19.9751 8.1399 19.9707C7.80592 19.9643 7.47301 19.9308 7.14445 19.8705C6.79439 19.807 6.46493 19.6597 6.18424 19.4411C5.88963 19.2183 5.66991 18.911 5.55438 18.5601L5.41123 18.2298C5.29011 17.9695 5.13857 17.7244 4.95976 17.4997C4.75421 17.2325 4.54646 17.0512 4.3365 16.9558L4.2374 16.8842C4.16858 16.8343 4.10577 16.7767 4.0502 16.7124C3.99713 16.6527 3.95367 16.5851 3.92137 16.512C3.89274 16.4444 3.9166 16.3894 3.99294 16.3468C4.06929 16.3028 4.20804 16.2811 4.40918 16.2818L4.69548 16.3259C4.88635 16.3633 5.12236 16.4775 5.40352 16.6684C5.68769 16.8621 5.92506 17.1168 6.09835 17.4138C6.31859 17.8044 6.5836 18.1028 6.89339 18.3091C7.20392 18.5146 7.51664 18.6174 7.83157 18.6174C8.14651 18.6174 8.41886 18.5935 8.64863 18.5458C8.87116 18.4997 9.08741 18.4272 9.29281 18.33C9.3787 17.6906 9.61251 17.1987 9.99425 16.8544C9.49919 16.8055 9.00852 16.7194 8.5264 16.5968C8.05593 16.4677 7.6035 16.2801 7.17969 16.0385C6.73619 15.797 6.34447 15.4708 6.02678 15.0783C5.72139 14.6965 5.4707 14.1955 5.27469 13.5752C5.07942 12.9542 4.98178 12.2377 4.98178 11.4257C4.98178 10.271 5.35874 9.2873 6.11267 8.47465C5.7603 7.6062 5.7937 6.63278 6.21287 5.55438C6.49037 5.46776 6.9011 5.53199 7.44507 5.74708C7.98904 5.96218 8.38766 6.1457 8.64092 6.29766C8.89419 6.45182 9.09717 6.58103 9.24986 6.68527C10.145 6.43569 11.0702 6.31045 11.9995 6.31308C12.945 6.31308 13.8619 6.43714 14.7501 6.68527L15.2941 6.34171C15.7125 6.0905 16.1539 5.8796 16.6122 5.71185C17.118 5.52098 17.5049 5.46849 17.7728 5.55438C18.2023 6.63352 18.2401 7.6073 17.8862 8.47575C18.6409 9.28693 19.0182 10.2706 19.0182 11.4268C19.0182 12.2388 18.9202 12.9571 18.7242 13.5818C18.5289 14.2073 18.276 14.7087 17.9655 15.086C17.6413 15.4725 17.2481 15.7955 16.806 16.0385C16.3435 16.2962 15.8946 16.4823 15.4593 16.5968C14.9772 16.7198 14.4865 16.8063 13.9914 16.8555C14.487 17.285 14.7351 17.9626 14.7358 18.8883V22.3129C14.7358 22.4744 14.7597 22.6054 14.8074 22.706C14.8297 22.7543 14.8614 22.7976 14.9008 22.8333C14.9401 22.8691 14.9863 22.8965 15.0364 22.9141C15.1414 22.9523 15.2346 22.9758 15.3161 22.9846C15.3976 22.9949 15.5143 22.9996 15.6663 22.9989H18.8751C20.0115 22.9989 20.983 22.5955 21.7898 21.7887C22.5966 20.9819 23 20.0104 23 18.874V5.12493C23 3.98854 22.5973 3.01695 21.7898 2.21017Z" fill="#1E374A"/>
</svg>
