<svg width="45" height="45" viewBox="0 0 45 45" fill="none" xmlns="http://www.w3.org/2000/svg">
<path d="M7.5 0C5.51088 0 3.60322 0.790177 2.1967 2.1967C0.790177 3.60322 0 5.51088 0 7.5V37.5C0 39.4891 0.790177 41.3968 2.1967 42.8033C3.60322 44.2098 5.51088 45 7.5 45H37.5C39.4891 45 41.3968 44.2098 42.8033 42.8033C44.2098 41.3968 45 39.4891 45 37.5V7.5C45 5.51088 44.2098 3.60322 42.8033 2.1967C41.3968 0.790177 39.4891 0 37.5 0H7.5ZM25.835 32.6375C27.635 34.0875 29.4317 34.8025 31.225 34.7825C32.325 34.7825 33.1683 34.5808 33.755 34.1775C34.0282 34.0002 34.2504 33.7548 34.3999 33.4655C34.5494 33.1761 34.6209 32.8529 34.6075 32.5275C34.6113 32.1726 34.5371 31.8212 34.3903 31.4981C34.2434 31.1749 34.0274 30.888 33.7575 30.6575C33.1708 30.1458 32.0608 29.6325 30.4275 29.1175C28.4658 28.5508 26.9533 27.8175 25.89 26.9175C24.8467 26.0175 24.315 24.7617 24.295 23.15C24.295 21.6283 24.955 20.3542 26.275 19.3275C27.5583 18.3008 29.2 17.7875 31.2 17.7875C33.9867 17.7875 36.2225 18.4658 37.9075 19.8225L35.9825 22.82C35.2893 22.2811 34.4942 21.8882 33.645 21.665C32.8819 21.4093 32.0846 21.2703 31.28 21.2525C30.33 21.2525 29.5692 21.4267 28.9975 21.775C28.4308 22.125 28.1475 22.5833 28.1475 23.15C28.1475 23.7733 28.495 24.305 29.19 24.745C29.89 25.1683 31.0817 25.6358 32.765 26.1475C34.8 26.7525 36.2483 27.5592 37.11 28.5675C37.9717 29.5758 38.4025 30.8592 38.4025 32.4175C38.4025 34.0125 37.7883 35.3875 36.56 36.5425C35.35 37.6792 33.59 38.275 31.28 38.33C28.255 38.33 25.725 37.4225 23.69 35.6075L25.835 32.6375ZM12.01 34.2325C12.5967 34.5992 13.3025 34.7825 14.1275 34.7825C14.9892 34.7825 15.7042 34.535 16.2725 34.04C16.8392 33.5267 17.1233 32.6375 17.125 31.3725V18.1175H20.8375V32.0875C20.7825 34.2508 20.1592 35.8092 18.9675 36.7625C18.3154 37.3138 17.5574 37.7256 16.74 37.9725C15.982 38.2033 15.1948 38.3237 14.4025 38.33C13.0275 38.33 11.8083 38.0917 10.745 37.615C9.60833 37.1033 8.655 36.1958 7.885 34.8925L10.47 32.775C10.945 33.4167 11.4583 33.9025 12.01 34.2325Z" fill="#1E374A"/>
</svg>
