<svg width="196" height="29" viewBox="0 0 196 29" fill="none" xmlns="http://www.w3.org/2000/svg">
<path d="M44.6333 12.9458C44.1509 12.6453 43.5373 12.4951 42.7925 12.4951C42.492 12.4951 42.2127 12.5374 41.9546 12.6221C41.6965 12.7025 41.4489 12.8421 41.2119 13.041C40.9792 13.2399 40.7803 13.4917 40.6152 13.7964C40.4502 14.1011 40.319 14.4883 40.2217 14.958C40.1243 15.4277 40.0757 15.9609 40.0757 16.5576C40.0757 17.1543 40.1286 17.6854 40.2344 18.1509C40.3402 18.6164 40.4798 18.9972 40.6533 19.2935C40.8311 19.5897 41.0426 19.833 41.2881 20.0234C41.5378 20.2139 41.7938 20.3493 42.0562 20.4297C42.3185 20.5059 42.6021 20.5439 42.9067 20.5439C43.7996 20.5439 44.4958 20.3726 44.9951 20.0298C45.4987 19.6828 45.9007 19.1496 46.2012 18.4302L47.8896 19.0142C47.7373 19.4246 47.5426 19.8118 47.3057 20.1758C47.0729 20.5355 46.7915 20.8677 46.4614 21.1724C46.1313 21.4771 45.7632 21.7394 45.3569 21.9595C44.9549 22.1753 44.5 22.3446 43.9922 22.4673C43.4844 22.59 42.9491 22.6514 42.3862 22.6514C41.5526 22.6514 40.7633 22.5054 40.0186 22.2134C39.278 21.9214 38.6326 21.5151 38.0825 20.9946C37.5366 20.4699 37.1029 19.8245 36.7812 19.0586C36.4639 18.2926 36.3052 17.459 36.3052 16.5576C36.3052 15.834 36.4067 15.1527 36.6099 14.5137C36.813 13.8747 37.0986 13.3097 37.4668 12.8188C37.8392 12.328 38.2751 11.9048 38.7744 11.5493C39.2738 11.1938 39.8281 10.9251 40.4375 10.7432C41.0469 10.557 41.6859 10.4639 42.3545 10.4639C42.8835 10.4639 43.3807 10.5146 43.8462 10.6162C44.3117 10.7135 44.7264 10.849 45.0903 11.0225C45.4585 11.1917 45.8013 11.4033 46.1187 11.6572C46.436 11.9111 46.7132 12.182 46.9502 12.4697C47.1914 12.7533 47.4157 13.0728 47.623 13.4282C47.8389 13.7625 47.9468 14.1286 47.9468 14.5264C47.9468 15.0892 47.7479 15.5695 47.3501 15.9673C46.9565 16.3608 46.4784 16.5576 45.9155 16.5576C45.3527 16.5576 44.8724 16.3608 44.4746 15.9673C44.0811 15.5695 43.8843 15.0892 43.8843 14.5264C43.8843 14.2132 43.9499 13.9191 44.0811 13.644C44.2165 13.369 44.4006 13.1362 44.6333 12.9458ZM52.9424 10.9399C53.6872 10.6479 54.4764 10.502 55.3101 10.502C56.1437 10.502 56.9308 10.6479 57.6714 10.9399C58.4162 11.2319 59.0636 11.6403 59.6138 12.165C60.1639 12.6855 60.5977 13.3288 60.915 14.0947C61.2367 14.8607 61.3975 15.6943 61.3975 16.5957C61.3975 17.4971 61.2367 18.3307 60.915 19.0967C60.5977 19.8626 60.1639 20.508 59.6138 21.0327C59.0636 21.5532 58.4162 21.9595 57.6714 22.2515C56.9308 22.5435 56.1437 22.6895 55.3101 22.6895C54.4764 22.6895 53.6872 22.5435 52.9424 22.2515C52.2018 21.9595 51.5565 21.5532 51.0063 21.0327C50.4604 20.508 50.0267 19.8626 49.7051 19.0967C49.3877 18.3307 49.229 17.4971 49.229 16.5957C49.229 15.6943 49.3877 14.8607 49.7051 14.0947C50.0267 13.3288 50.4604 12.6855 51.0063 12.165C51.5565 11.6403 52.2018 11.2319 52.9424 10.9399ZM55.3101 12.5332C55.0138 12.5332 54.7493 12.5755 54.5166 12.6602C54.2839 12.7448 54.0701 12.8844 53.8755 13.0791C53.6808 13.2738 53.52 13.5256 53.3931 13.8345C53.2703 14.1434 53.173 14.5285 53.1011 14.9897C53.0334 15.451 52.9995 15.9863 52.9995 16.5957C52.9995 17.2051 53.0334 17.7404 53.1011 18.2017C53.173 18.6629 53.2703 19.048 53.3931 19.3569C53.52 19.6659 53.6808 19.9176 53.8755 20.1123C54.0701 20.307 54.2839 20.4466 54.5166 20.5312C54.7493 20.6159 55.0138 20.6582 55.3101 20.6582C55.6825 20.6582 56.0062 20.5884 56.2812 20.4487C56.5563 20.3049 56.7954 20.0763 56.9985 19.7632C57.2059 19.45 57.3604 19.029 57.4619 18.5C57.5677 17.971 57.6206 17.3363 57.6206 16.5957C57.6206 15.8551 57.5677 15.2204 57.4619 14.6914C57.3604 14.1624 57.2059 13.7414 56.9985 13.4282C56.7954 13.1151 56.5563 12.8887 56.2812 12.749C56.0062 12.6051 55.6825 12.5332 55.3101 12.5332ZM67.2246 22.6895C66.2344 22.6895 65.3944 22.4355 64.7046 21.9277C64.0148 21.4199 63.5007 20.7111 63.1621 19.8013C62.8278 18.8914 62.6606 17.8081 62.6606 16.5513C62.6606 15.633 62.7791 14.793 63.0161 14.0312C63.2573 13.2695 63.5916 12.6284 64.019 12.1079C64.4507 11.5832 64.9691 11.179 65.5742 10.8955C66.1836 10.6077 66.8501 10.4639 67.5737 10.4639C67.9377 10.4639 68.2804 10.4977 68.6021 10.5654C68.9237 10.6289 69.1966 10.7093 69.4209 10.8066C69.6494 10.904 69.8652 11.0246 70.0684 11.1685C70.2715 11.3123 70.4344 11.4478 70.5571 11.5747C70.6841 11.7017 70.8068 11.8434 70.9253 12V8.68652H69.6558V6.65527H74.48V20.3662H75.7495V22.3975H71.979L71.2109 20.9248C71.0459 21.1533 70.8597 21.3628 70.6523 21.5532C69.8145 22.3107 68.6719 22.6895 67.2246 22.6895ZM70.9253 14.1519C70.4429 13.2632 69.7869 12.8188 68.9575 12.8188C68.1196 12.8188 67.4954 13.1468 67.085 13.8027C66.6787 14.4587 66.4756 15.3896 66.4756 16.5957C66.4756 17.1628 66.5412 17.6875 66.6724 18.1699C66.8078 18.6481 66.9855 19.0459 67.2056 19.3633C67.4299 19.6807 67.6859 19.9282 67.9736 20.106C68.2614 20.2795 68.5618 20.3662 68.875 20.3662C69.2982 20.3662 69.6727 20.2498 69.9985 20.0171C70.3286 19.7801 70.6375 19.431 70.9253 18.9697V14.1519ZM80.5737 17.3193C80.6118 17.8102 80.6922 18.2482 80.8149 18.6333C80.9377 19.0184 81.0858 19.3337 81.2593 19.5791C81.437 19.8245 81.6423 20.0277 81.875 20.1885C82.1077 20.3451 82.3468 20.4572 82.5923 20.5249C82.8377 20.5884 83.1001 20.6201 83.3794 20.6201C84.2723 20.6201 84.9684 20.4487 85.4678 20.106C85.9714 19.759 86.3734 19.2257 86.6738 18.5063L88.3623 19.0903C88.21 19.5008 88.0153 19.888 87.7783 20.252C87.5456 20.6117 87.2642 20.9438 86.9341 21.2485C86.604 21.5532 86.2358 21.8156 85.8296 22.0356C85.4276 22.2515 84.9727 22.4207 84.4648 22.5435C83.957 22.6662 83.4217 22.7275 82.8589 22.7275C82.0252 22.7275 81.236 22.5815 80.4912 22.2896C79.7507 21.9976 79.1053 21.5913 78.5552 21.0708C78.0093 20.5461 77.5755 19.9007 77.2539 19.1348C76.9365 18.3688 76.7778 17.5352 76.7778 16.6338C76.7778 15.7324 76.9365 14.8945 77.2539 14.1201C77.5755 13.3457 78.0093 12.694 78.5552 12.165C79.1053 11.6318 79.7507 11.215 80.4912 10.9146C81.236 10.6141 82.0252 10.4639 82.8589 10.4639C83.6925 10.4639 84.4797 10.6141 85.2202 10.9146C85.965 11.215 86.6104 11.6318 87.1562 12.165C87.7064 12.694 88.1401 13.3457 88.4575 14.1201C88.7791 14.8945 88.9399 15.7324 88.9399 16.6338L88.7812 17.3193H80.5737ZM80.6182 15.2881H85.0996C84.9896 14.3148 84.7463 13.606 84.3696 13.1616C83.993 12.7173 83.4937 12.4951 82.8716 12.4951C82.5627 12.4951 82.2855 12.5459 82.04 12.6475C81.7946 12.7448 81.5745 12.9035 81.3799 13.1235C81.1852 13.3394 81.0223 13.6292 80.8911 13.9932C80.7642 14.3529 80.6732 14.7845 80.6182 15.2881ZM96.811 10.7178H103.92V12.749H101.927L103.635 17.3193C103.774 17.6917 103.933 18.2207 104.111 18.9062C104.284 18.2207 104.437 17.6917 104.568 17.3193L106.206 12.749H105.19V10.7178H109.76V12.749H108.516L110.23 17.3193C110.37 17.6917 110.528 18.2207 110.706 18.9062C110.888 18.1826 111.038 17.6536 111.157 17.3193L112.794 12.749H111.03V10.7178H116.362V12.749H115.016L111.538 22.3975H108.745L107.374 18.5889C107.208 18.1318 107.033 17.5394 106.847 16.8115C106.66 17.5436 106.485 18.1361 106.32 18.5889L104.949 22.3975H101.483L98.0044 12.749H96.811V10.7178ZM118.222 9.36572C117.828 8.96794 117.631 8.48763 117.631 7.9248C117.631 7.36198 117.828 6.88379 118.222 6.49023C118.619 6.09245 119.1 5.89355 119.663 5.89355C120.225 5.89355 120.704 6.09245 121.097 6.49023C121.495 6.88379 121.694 7.36198 121.694 7.9248C121.694 8.48763 121.495 8.96794 121.097 9.36572C120.704 9.75928 120.225 9.95605 119.663 9.95605C119.1 9.95605 118.619 9.75928 118.222 9.36572ZM116.616 10.7178H121.44V20.3662H122.709V22.3975H116.616V20.3662H117.885V12.749H116.616V10.7178ZM127.28 8.17871H128.549V10.7178H132.104V12.749H128.549V19.3506C128.549 19.6383 128.63 19.8796 128.791 20.0742C128.956 20.2689 129.214 20.3662 129.565 20.3662C129.958 20.3662 130.293 20.2371 130.568 19.979C130.843 19.7166 131.016 19.3379 131.088 18.8428L132.612 19.0967C132.548 19.5918 132.426 20.0509 132.244 20.4741C132.066 20.8931 131.833 21.2676 131.545 21.5977C131.258 21.9235 130.9 22.1816 130.473 22.3721C130.049 22.5583 129.578 22.6514 129.057 22.6514C127.792 22.6514 126.797 22.3573 126.074 21.769C125.354 21.1766 124.995 20.3704 124.995 19.3506V12.749H123.725V10.7178H123.979C124.631 10.7178 125.206 10.5316 125.706 10.1592C126.205 9.78678 126.73 9.12663 127.28 8.17871ZM142.006 10.4639C142.599 10.4639 143.117 10.5443 143.562 10.7051C144.006 10.8659 144.37 11.0881 144.653 11.3716C144.937 11.6509 145.165 12.0085 145.339 12.4443C145.517 12.876 145.639 13.3415 145.707 13.8408C145.779 14.3359 145.815 14.903 145.815 15.542V20.3662H147.084V22.3975H140.991V20.3662H142.26V15.2881C142.26 14.6195 142.199 14.099 142.076 13.7266C141.958 13.3542 141.784 13.0981 141.556 12.9585C141.331 12.8188 141.025 12.749 140.635 12.749C140.276 12.749 139.905 12.9035 139.524 13.2124C139.148 13.5213 138.79 13.953 138.452 14.5073V20.3662H139.721V22.3975H133.627V20.3662H134.897V8.68652H133.627V6.65527H138.452V12.4507C138.604 12.1672 138.784 11.9111 138.991 11.6826C139.199 11.4541 139.444 11.2467 139.728 11.0605C140.011 10.8701 140.345 10.7241 140.73 10.6226C141.12 10.5168 141.545 10.4639 142.006 10.4639ZM155.209 6.65527H160.859L167.397 14.3486V8.68652H165.366V6.65527H171.967V8.68652H169.936V22.3975H168.413L159.78 12.2412V20.3662H161.811V22.3975H155.209V20.3662H157.241V8.68652H155.209V6.65527ZM184.028 14.7485V20.3662H185.297V22.3975H181.343L180.778 21.0771C180.346 21.695 179.845 22.1182 179.273 22.3467C178.706 22.5752 177.913 22.6895 176.893 22.6895C176.364 22.6895 175.871 22.5964 175.414 22.4102C174.961 22.2282 174.574 21.9785 174.252 21.6611C173.935 21.3438 173.685 20.9629 173.503 20.5186C173.326 20.0742 173.237 19.5981 173.237 19.0903C173.237 18.2144 173.58 17.4886 174.265 16.9131C174.951 16.3333 175.827 16.0435 176.893 16.0435C177.752 16.0435 178.463 16.126 179.026 16.291C179.589 16.4518 180.071 16.71 180.473 17.0654V14.374C180.473 13.9932 180.42 13.6758 180.314 13.4219C180.213 13.1637 180.058 12.967 179.851 12.8315C179.644 12.6919 179.411 12.5946 179.153 12.5396C178.895 12.4845 178.586 12.457 178.226 12.457C177.938 12.457 177.678 12.5184 177.445 12.6411C177.576 12.9162 177.642 13.2061 177.642 13.5107C177.642 14.0736 177.443 14.5539 177.045 14.9517C176.652 15.3452 176.174 15.542 175.611 15.542C175.048 15.542 174.568 15.3452 174.17 14.9517C173.776 14.5539 173.58 14.0736 173.58 13.5107C173.58 13.223 173.635 12.9521 173.745 12.6982C173.859 12.4443 174.015 12.2222 174.214 12.0317C174.384 11.854 174.559 11.6953 174.741 11.5557C174.923 11.4118 175.152 11.27 175.427 11.1304C175.706 10.9865 176.009 10.868 176.334 10.7749C176.66 10.6818 177.05 10.6077 177.502 10.5527C177.959 10.4935 178.459 10.4639 179 10.4639C179.703 10.4639 180.363 10.5675 180.981 10.7749C181.599 10.9823 182.132 11.27 182.581 11.6382C183.029 12.0063 183.382 12.4591 183.641 12.9966C183.899 13.534 184.028 14.118 184.028 14.7485ZM180.473 19.5791V18.7031C180.211 18.4535 179.915 18.244 179.584 18.0747C179.259 17.9012 178.956 17.8145 178.677 17.8145C178.076 17.8145 177.653 17.916 177.407 18.1191C177.162 18.318 177.039 18.6418 177.039 19.0903C177.039 19.6278 177.145 20.0234 177.356 20.2773C177.568 20.5312 177.962 20.6582 178.537 20.6582C178.863 20.6582 179.201 20.5545 179.553 20.3472C179.908 20.1356 180.215 19.8796 180.473 19.5791ZM189.233 8.17871H190.502V10.7178H194.057V12.749H190.502V19.3506C190.502 19.6383 190.583 19.8796 190.744 20.0742C190.909 20.2689 191.167 20.3662 191.518 20.3662C191.912 20.3662 192.246 20.2371 192.521 19.979C192.796 19.7166 192.97 19.3379 193.042 18.8428L194.565 19.0967C194.501 19.5918 194.379 20.0509 194.197 20.4741C194.019 20.8931 193.786 21.2676 193.499 21.5977C193.211 21.9235 192.853 22.1816 192.426 22.3721C192.003 22.5583 191.531 22.6514 191.01 22.6514C189.745 22.6514 188.75 22.3573 188.027 21.769C187.307 21.1766 186.948 20.3704 186.948 19.3506V12.749H185.678V10.7178H185.932C186.584 10.7178 187.159 10.5316 187.659 10.1592C188.158 9.78678 188.683 9.12663 189.233 8.17871Z" fill="#1E374A"/>
<rect x="0.846154" y="1.24361" width="26.3946" height="26.5128" rx="1.41026" fill="white" stroke="#1E374A" stroke-width="1.69231"/>
<path d="M10.5027 22.9157C9.98723 22.6638 9.31657 22.4002 8.49069 22.1249L7.01466 21.6329C6.78037 21.5568 6.56072 21.4806 6.35571 21.4045C6.20343 21.3518 6.09214 21.2522 6.02185 21.1058C5.95742 20.9593 5.95156 20.8129 6.00428 20.6665C6.07457 20.4615 6.21514 20.3355 6.426 20.2887H6.43479L7.19038 19.9987L8.0514 19.6473L8.75427 19.3486L10.3533 18.6457C10.529 18.5754 10.6842 18.5754 10.819 18.6457C10.9537 18.716 11.0503 18.8214 11.1089 18.962C11.1675 19.1026 11.1763 19.2461 11.1353 19.3925C11.0943 19.5331 10.9859 19.6415 10.8102 19.7176L8.24469 20.8246L8.8597 21.0267C9.73244 21.3196 10.45 21.5978 11.0123 21.8614C11.1821 21.9492 11.2846 22.0664 11.3198 22.2128C11.3549 22.3534 11.3403 22.494 11.2758 22.6345C11.2114 22.7692 11.1089 22.8688 10.9683 22.9332C10.8336 22.9977 10.6784 22.9918 10.5027 22.9157ZM13.7436 23.0035C13.6968 23.1617 13.6206 23.2759 13.5152 23.3462C13.4098 23.4165 13.2926 23.4487 13.1638 23.4428C13.0408 23.4428 12.9236 23.4106 12.8123 23.3462C12.7069 23.2818 12.6278 23.191 12.5751 23.0738C12.5224 22.9567 12.5195 22.822 12.5663 22.6697L14.4289 17.0818C14.4699 16.9295 14.5402 16.8153 14.6398 16.7392C14.7452 16.663 14.8595 16.622 14.9825 16.6162C15.1113 16.6103 15.2314 16.6367 15.3427 16.6952C15.454 16.7538 15.5389 16.8417 15.5975 16.9588C15.656 17.0701 15.6648 17.2048 15.6238 17.363L13.7436 23.0035ZM17.579 22.9332C17.3916 22.9801 17.2364 22.9596 17.1134 22.8717C16.9904 22.7839 16.9084 22.6667 16.8674 22.5203C16.8322 22.368 16.8469 22.2245 16.9113 22.0898C16.9757 21.9492 17.0987 21.8555 17.2803 21.8086C17.8016 21.6739 18.4518 21.4514 19.2308 21.1409L19.9776 20.8422L17.2803 19.8055C17.1339 19.7527 17.0314 19.6766 16.9728 19.577C16.9142 19.4716 16.8908 19.3603 16.9025 19.2432C16.9201 19.1202 16.964 19.0118 17.0343 18.9181C17.1105 18.8185 17.2042 18.7511 17.3155 18.716C17.4326 18.675 17.5615 18.6809 17.702 18.7336L21.7348 20.2711C21.8871 20.3297 21.9954 20.4322 22.0599 20.5786C22.1243 20.7251 22.1301 20.8715 22.0774 21.0179C22.0306 21.1351 21.9544 21.2288 21.849 21.2991C21.7904 21.3635 21.7201 21.4104 21.6381 21.4396C21.4214 21.5158 21.2106 21.5949 21.0055 21.6769L19.6613 22.2216C18.812 22.5496 18.1179 22.7868 17.579 22.9332Z" fill="#1E374A"/>
<path d="M16.8247 4.91861C16.7854 6.51058 16.7005 8.86089 16.5699 11.4054L18.7367 14.5396C18.9671 9.68013 19.0743 6.46738 19.1207 4.97459C19.1241 4.60107 19.0092 4.31638 18.776 4.12053C18.5537 3.92509 18.2893 3.82693 17.9829 3.82605C17.6879 3.81462 17.4218 3.90322 17.1848 4.09185C16.9591 4.26993 16.839 4.54551 16.8247 4.91861Z" fill="#1E374A"/>
<path d="M16.3442 15.3626C16.6286 15.703 16.984 15.8348 17.4104 15.7579C17.7166 15.7359 17.9736 15.6206 18.1814 15.412C18.3892 15.1924 18.4985 14.9288 18.5095 14.6213L16.2458 11.3269L15.4585 10.1903C14.2556 8.47719 13.3479 7.30217 12.7355 6.66525L11.8006 5.52866C11.385 5.0345 11.0843 4.67211 10.8984 4.4415C10.7453 4.2658 10.5648 4.145 10.3571 4.07911C10.2149 4.0242 10.0673 3.99126 9.91418 3.98028C9.59706 3.9693 9.32367 4.07362 9.09402 4.29325C8.86438 4.51288 8.74409 4.78192 8.73315 5.10039C8.68941 6.20952 8.70035 7.84026 8.76596 9.99263C8.82064 12.156 8.84798 13.7208 8.84798 14.6872C8.84798 14.9947 8.92452 15.2418 9.07762 15.4285C9.23072 15.6042 9.42209 15.725 9.65173 15.7908C9.88138 15.8458 10.111 15.8458 10.3407 15.7908C10.5703 15.725 10.7617 15.6042 10.9148 15.4285C11.0679 15.2418 11.1444 14.9947 11.1444 14.6872C11.1444 13.6879 11.1226 12.4305 11.0788 10.9151C11.0351 9.41061 11.0077 8.43875 10.9968 7.9995C11.4998 8.61446 12.3583 9.78398 13.5721 11.5081C14.6875 13.2102 15.6116 14.495 16.3442 15.3626Z" fill="#1E374A"/>
</svg>
