<svg width="45" height="45" viewBox="0 0 45 45" fill="none" xmlns="http://www.w3.org/2000/svg">
<rect width="45" height="45" rx="4" fill="#1E374A"/>
<path d="M22.3828 24.9205C21.7571 24.9205 21.1571 24.6719 20.7147 24.2295C20.2723 23.7871 20.0237 23.1871 20.0237 22.5614C20.0237 21.9358 20.2723 21.3358 20.7147 20.8934C21.1571 20.4509 21.7571 20.2024 22.3828 20.2024C23.0084 20.2024 23.6085 20.4509 24.0509 20.8934C24.4933 21.3358 24.7418 21.9358 24.7418 22.5614C24.7418 23.1871 24.4933 23.7871 24.0509 24.2295C23.6085 24.6719 23.0084 24.9205 22.3828 24.9205ZM21.5524 29.6291C21.8271 29.9604 22.1039 30.2797 22.3828 30.5869C22.6617 30.2808 22.9385 29.9615 23.2132 29.6291C22.6596 29.6408 22.1059 29.6408 21.5524 29.6291ZM18.4149 29.4325C17.2073 29.3064 16.0076 29.1137 14.8213 28.8554C14.7028 29.4058 14.6137 29.9379 14.5539 30.4516C14.2551 32.9412 14.6719 34.4542 15.3057 34.819C15.9395 35.1839 17.4571 34.7891 19.4654 33.2872C19.8796 32.9769 20.2958 32.6335 20.7142 32.2571C19.8964 31.3586 19.1288 30.4156 18.4149 29.4325ZM29.9443 28.8554C28.7579 29.1137 27.5583 29.3064 26.3507 29.4325C25.6368 30.4156 24.8692 31.3586 24.0514 32.2571C24.4708 32.6345 24.887 32.9779 25.3001 33.2872C27.3085 34.7891 28.8261 35.1855 29.4599 34.819C30.0937 34.4542 30.5089 32.9412 30.2132 30.4516C30.1491 29.9157 30.0583 29.383 29.9443 28.8554ZM32.2263 28.2452C33.1337 32.3955 32.6572 35.6997 30.641 36.8635C28.6248 38.0273 25.525 36.788 22.3844 33.9273C19.2437 36.788 16.1439 38.0257 14.1277 36.8619C12.1115 35.6982 11.635 32.3955 12.5409 28.2436C8.49119 26.9556 5.86951 24.889 5.86951 22.5614C5.86951 20.2339 8.49119 18.1689 12.5393 16.8793C11.6334 12.7274 12.11 9.42474 14.1261 8.26095C16.1423 7.09715 19.2421 8.33486 22.3828 11.1956C25.5235 8.33486 28.6232 7.09715 30.6394 8.26095C32.6556 9.42474 33.1321 12.7274 32.2263 16.8793C36.2728 18.1689 38.8945 20.2339 38.8945 22.5614C38.8945 24.889 36.2728 26.9556 32.2263 28.2452ZM20.7126 12.8658C20.2953 12.4894 19.8796 12.146 19.4654 11.8357C17.4571 10.3338 15.9395 9.93744 15.3041 10.3039C14.6703 10.6687 14.2551 12.1817 14.5508 14.6728C14.6137 15.1866 14.7028 15.7187 14.8181 16.2691C16.005 16.0102 17.2052 15.817 18.4133 15.6903C19.1619 14.6618 19.9283 13.7203 20.7126 12.8658ZM26.3507 15.6903C27.5583 15.8171 28.758 16.0103 29.9443 16.2691C30.0628 15.7176 30.1519 15.1855 30.2117 14.6728C30.5105 12.1817 30.0937 10.6687 29.4599 10.3039C28.8261 9.93901 27.3085 10.3338 25.3001 11.8357C24.886 12.146 24.4698 12.4894 24.0514 12.8658C24.8357 13.7203 25.6021 14.6618 26.3507 15.6903ZM23.2132 15.4938C22.9385 15.1624 22.6617 14.8432 22.3828 14.536C22.1049 14.8432 21.8282 15.1624 21.5524 15.4938C22.1059 15.4821 22.6596 15.4821 23.2132 15.4938ZM16.6771 26.814C16.3902 26.3408 16.1133 25.8615 15.8467 25.3766C15.6967 25.7802 15.5589 26.1797 15.4331 26.575C15.8378 26.662 16.2535 26.7417 16.6771 26.814ZM19.7139 27.182C21.4897 27.3133 23.2727 27.3133 25.0485 27.182C26.0507 25.7096 26.9427 24.1652 27.7174 22.5614C26.9432 20.9577 26.0517 19.4133 25.0501 17.9409C23.2743 17.8096 21.4913 17.8096 19.7155 17.9409C18.7139 19.4133 17.8224 20.9577 17.0482 22.5614C17.8224 24.1652 18.7123 25.7096 19.7139 27.182ZM28.9189 19.7463C29.0688 19.3427 29.2067 18.9437 29.3325 18.5495C28.9202 18.4601 28.506 18.3798 28.0901 18.3089C28.3764 18.7821 28.6528 19.2614 28.9189 19.7463ZM13.1511 19.1597C12.6164 19.3327 12.111 19.5214 11.635 19.7259C9.33101 20.7135 8.22855 21.8301 8.22855 22.5614C8.22855 23.2927 9.32943 24.4094 11.635 25.397C12.111 25.6015 12.6164 25.7902 13.1511 25.9632C13.5002 24.8623 13.9327 23.7205 14.4485 22.5614C13.9538 21.4523 13.5207 20.3166 13.1511 19.1597ZM15.4315 18.5495C15.5583 18.9427 15.6967 19.3411 15.8467 19.7448C16.1133 19.2603 16.3902 18.7816 16.6771 18.3089C16.2524 18.3812 15.8362 18.4614 15.4315 18.5495ZM31.6161 25.9632C32.1508 25.7902 32.6561 25.6015 33.1321 25.397C35.4346 24.4094 36.5355 23.2927 36.5355 22.5614C36.5355 21.8301 35.4346 20.7135 33.129 19.7259C32.653 19.5214 32.1471 19.3327 31.6114 19.1597C31.2654 20.2606 30.8313 21.4024 30.3155 22.5614C30.8313 23.7205 31.2638 24.8623 31.6129 25.9632M29.3325 26.575C29.2046 26.1797 29.0662 25.7802 28.9173 25.3766C28.6507 25.8615 28.3738 26.3408 28.0869 26.814C28.5116 26.7406 28.9278 26.6609 29.3325 26.575Z" fill="white"/>
</svg>
