<svg width="45" height="45" viewBox="0 0 45 45" fill="none" xmlns="http://www.w3.org/2000/svg">
<path d="M0 5V40C0 42.7625 2.2375 45 5 45H40C42.7625 45 45 42.7625 45 40V5C45 2.2375 42.7625 0 40 0H5C2.2375 0 0 2.2375 0 5ZM26.665 23.6275H21.37V40H17.1025V23.6275H11.9175V20H26.665V23.6275ZM27.495 39.065V34.6875C27.495 34.6875 29.885 36.49 32.755 36.49C35.625 36.49 35.5125 34.615 35.5125 34.3575C35.5125 31.635 27.385 31.635 27.385 25.605C27.385 17.4025 39.2275 20.64 39.2275 20.64L39.08 24.5375C39.08 24.5375 37.095 23.2125 34.85 23.2125C32.6075 23.2125 31.7975 24.28 31.7975 25.42C31.7975 28.3625 40 28.0675 40 33.99C40 43.11 27.495 39.065 27.495 39.065Z" fill="#1E374A"/>
</svg>
