<svg width="25" height="25" viewBox="0 0 25 25" fill="none" xmlns="http://www.w3.org/2000/svg">
<path fill-rule="evenodd" clip-rule="evenodd" d="M9.12656 8.24982C9.33356 8.02767 9.44625 7.73385 9.4409 7.43025C9.43554 7.12666 9.31255 6.83699 9.09785 6.62229C8.88314 6.40758 8.59347 6.28459 8.28988 6.27924C7.98628 6.27388 7.69246 6.38657 7.47031 6.59357L2.39062 11.6717L1.5625 12.4998L2.39062 13.3279L7.46875 18.4061C7.68967 18.6196 7.98563 18.7379 8.29289 18.7354C8.60016 18.7329 8.89414 18.6097 9.11152 18.3926C9.3289 18.1754 9.45228 17.8815 9.45509 17.5743C9.45791 17.267 9.33993 16.9709 9.12656 16.7498L6.04844 13.6717H22.2656C22.5764 13.6717 22.8745 13.5482 23.0943 13.3285C23.314 13.1087 23.4375 12.8106 23.4375 12.4998C23.4375 12.189 23.314 11.8909 23.0943 11.6712C22.8745 11.4514 22.5764 11.3279 22.2656 11.3279H6.04844L9.12656 8.24982Z" fill="black"/>
</svg>
