<svg width="23" height="16" viewBox="0 0 23 16" fill="none" xmlns="http://www.w3.org/2000/svg">
<path d="M11.5 0C6.27273 0 1.80864 3.25136 0 7.84091C1.80864 12.4305 6.27273 15.6818 11.5 15.6818C16.7273 15.6818 21.1914 12.4305 23 7.84091C21.1914 3.25136 16.7273 0 11.5 0ZM11.5 13.0682C8.61455 13.0682 6.27273 10.7264 6.27273 7.84091C6.27273 4.95545 8.61455 2.61364 11.5 2.61364C14.3855 2.61364 16.7273 4.95545 16.7273 7.84091C16.7273 10.7264 14.3855 13.0682 11.5 13.0682ZM11.5 4.70455C9.76455 4.70455 8.36364 6.10545 8.36364 7.84091C8.36364 9.57636 9.76455 10.9773 11.5 10.9773C13.2355 10.9773 14.6364 9.57636 14.6364 7.84091C14.6364 6.10545 13.2355 4.70455 11.5 4.70455Z" fill="#1E374A"/>
</svg>
