<svg width="35" height="39" viewBox="0 0 35 39" fill="none" xmlns="http://www.w3.org/2000/svg">
<path d="M15 19.4884L22.35 26.8384C22.6 27.0884 22.721 27.38 22.713 27.7134C22.705 28.0467 22.5757 28.3384 22.325 28.5884C22.0744 28.8384 21.7827 28.9634 21.45 28.9634C21.1174 28.9634 20.8257 28.8384 20.575 28.5884L12.875 20.9134C12.675 20.7134 12.525 20.4884 12.425 20.2384C12.325 19.9884 12.275 19.7384 12.275 19.4884C12.275 19.2384 12.325 18.9884 12.425 18.7384C12.525 18.4884 12.675 18.2634 12.875 18.0634L20.575 10.3634C20.825 10.1134 21.121 9.99237 21.463 10.0004C21.805 10.0084 22.1007 10.1377 22.35 10.3884C22.5994 10.639 22.7244 10.9307 22.725 11.2634C22.7257 11.596 22.6007 11.8877 22.35 12.1384L15 19.4884Z" fill="#A7AABE"/>
</svg>
