<svg width="35" height="39" viewBox="0 0 35 39" fill="none" xmlns="http://www.w3.org/2000/svg">
<path d="M19.9941 19.5L12.6441 12.15C12.3941 11.9 12.2731 11.604 12.2811 11.262C12.2891 10.92 12.4185 10.6243 12.6691 10.375C12.9198 10.1257 13.2158 10.0007 13.5571 10C13.8985 9.99934 14.1941 10.1243 14.4441 10.375L22.1191 18.075C22.3191 18.275 22.4691 18.5 22.5691 18.75C22.6691 19 22.7191 19.25 22.7191 19.5C22.7191 19.75 22.6691 20 22.5691 20.25C22.4691 20.5 22.3191 20.725 22.1191 20.925L14.4191 28.625C14.1691 28.875 13.8775 28.996 13.5441 28.988C13.2108 28.98 12.9191 28.8507 12.6691 28.6C12.4191 28.3493 12.2941 28.0533 12.2941 27.712C12.2941 27.3707 12.4191 27.075 12.6691 26.825L19.9941 19.5Z" fill="#A7AABE"/>
</svg>
