<svg width="17" height="17" viewBox="0 0 17 17" fill="none" xmlns="http://www.w3.org/2000/svg">
<path d="M16.7201 15.3853L12.9868 11.6504C14.1062 10.1917 14.6288 8.36191 14.4486 6.5321C14.2684 4.70229 13.399 3.00953 12.0166 1.79719C10.6343 0.58486 8.84252 -0.0562639 7.00484 0.00387884C5.16717 0.0640216 3.42118 0.820927 2.12105 2.12105C0.820927 3.42118 0.0640216 5.16717 0.00387884 7.00484C-0.0562639 8.84252 0.58486 10.6343 1.79719 12.0166C3.00953 13.399 4.70229 14.2684 6.5321 14.4486C8.36191 14.6288 10.1917 14.1062 11.6504 12.9868L15.3868 16.724C15.4746 16.8118 15.5787 16.8814 15.6934 16.9289C15.808 16.9763 15.9309 17.0008 16.055 17.0008C16.1791 17.0008 16.302 16.9763 16.4167 16.9289C16.5313 16.8814 16.6355 16.8118 16.7232 16.724C16.811 16.6363 16.8806 16.5321 16.9281 16.4174C16.9756 16.3028 17 16.1799 17 16.0558C17 15.9317 16.9756 15.8088 16.9281 15.6942C16.8806 15.5795 16.811 15.4754 16.7232 15.3876L16.7201 15.3853ZM1.90254 7.24815C1.90254 6.19089 2.21606 5.15737 2.80344 4.27829C3.39082 3.39921 4.22569 2.71405 5.20247 2.30945C6.17925 1.90486 7.25407 1.799 8.29102 2.00526C9.32797 2.21152 10.2805 2.72064 11.0281 3.46823C11.7757 4.21583 12.2848 5.16832 12.491 6.20527C12.6973 7.24222 12.5914 8.31704 12.1868 9.29382C11.7822 10.2706 11.0971 11.1055 10.218 11.6929C9.33892 12.2802 8.3054 12.5937 7.24814 12.5937C5.83085 12.5923 4.47202 12.0286 3.46984 11.0264C2.46766 10.0243 1.904 8.66544 1.90254 7.24815Z" fill="#142B3D" fill-opacity="0.5"/>
</svg>
